<svg width="52" height="52" viewBox="0 0 52 52" fill="none" xmlns="http://www.w3.org/2000/svg">
<rect width="52" height="52" fill="white"/>
<g clip-path="url(#clip0_2813_327)">
<path d="M35.75 38.1875C27.2374 38.1875 20.3125 31.2626 20.3125 22.75C20.3125 14.2374 27.2374 7.3125 35.75 7.3125C44.2626 7.3125 51.1875 14.2374 51.1875 22.75C51.1875 31.2626 44.2626 38.1875 35.75 38.1875ZM35.75 11.375C29.4775 11.375 24.375 16.4775 24.375 22.75C24.375 29.0225 29.4775 34.125 35.75 34.125C42.0225 34.125 47.125 29.0225 47.125 22.75C47.125 16.4775 42.0225 11.375 35.75 11.375Z" fill="#2AB1A3"/>
<path d="M4.0625 21.125H18.6875V27.625H4.0625V21.125Z" fill="#2AB1A3"/>
<path d="M43.0625 18.6875H41.4375V24.375H39.8125V17.0625H38.1875V24.375H36.5625V13.8125H34.9375V24.375H33.3125V15.4375H31.6875V24.375H30.0625V20.3125H28.4375V24.375H26.8125V26H44.6875V24.375H43.0625V18.6875Z" fill="#1C1C1B"/>
<path d="M5.6875 4.0625C4.79131 4.0625 4.0625 4.79131 4.0625 5.6875V7.3125C4.0625 8.20869 4.79131 8.9375 5.6875 8.9375H7.3125C8.20869 8.9375 8.9375 8.20869 8.9375 7.3125V5.6875C8.9375 4.79131 8.20869 4.0625 7.3125 4.0625H5.6875ZM5.6875 7.3125V5.6875H7.3125L7.31331 7.3125H5.6875Z" fill="#1C1C1B"/>
<path d="M12.1875 4.0625C11.2913 4.0625 10.5625 4.79131 10.5625 5.6875V7.3125C10.5625 8.20869 11.2913 8.9375 12.1875 8.9375H13.8125C14.7087 8.9375 15.4375 8.20869 15.4375 7.3125V5.6875C15.4375 4.79131 14.7087 4.0625 13.8125 4.0625H12.1875ZM12.1875 7.3125V5.6875H13.8125L13.8133 7.3125H12.1875Z" fill="#1C1C1B"/>
<path d="M18.6875 4.0625C17.7913 4.0625 17.0625 4.79131 17.0625 5.6875V7.3125C17.0625 8.20869 17.7913 8.9375 18.6875 8.9375H20.3125C21.2087 8.9375 21.9375 8.20869 21.9375 7.3125V5.6875C21.9375 4.79131 21.2087 4.0625 20.3125 4.0625H18.6875ZM18.6875 7.3125V5.6875H20.3125L20.3133 7.3125H18.6875Z" fill="#1C1C1B"/>
<path d="M45.5 34.7059V37.375C45.5 37.8227 45.136 38.1875 44.6875 38.1875H39.8125V37.6269C39.2811 37.7723 38.74 37.8877 38.1875 37.9754V47.125C38.1875 48.4689 37.0939 49.5625 35.75 49.5625C34.4061 49.5625 33.3125 48.4689 33.3125 47.125V37.9754C32.76 37.8869 32.2189 37.7723 31.6875 37.6269V38.1875H3.25C2.8015 38.1875 2.4375 37.8227 2.4375 37.375V12.1875H24.5229C25.0754 11.6001 25.6717 11.0573 26.3104 10.5625H2.4375V3.25C2.4375 2.80231 2.8015 2.4375 3.25 2.4375H44.6875C45.136 2.4375 45.5 2.80231 45.5 3.25V10.7941C46.0817 11.2694 46.618 11.7959 47.125 12.35V3.25C47.125 1.90612 46.0314 0.8125 44.6875 0.8125H3.25C1.90612 0.8125 0.8125 1.90612 0.8125 3.25V37.375C0.8125 38.7189 1.90612 39.8125 3.25 39.8125H31.6875V47.125C31.6875 49.3651 33.5099 51.1875 35.75 51.1875C37.9901 51.1875 39.8125 49.3651 39.8125 47.125V39.8125H44.6875C46.0314 39.8125 47.125 38.7189 47.125 37.375V33.15C46.618 33.7041 46.0817 34.2306 45.5 34.7059Z" fill="#1C1C1B"/>
<path d="M35.75 10.5625C29.0298 10.5625 23.5625 16.0298 23.5625 22.75C23.5625 29.4702 29.0298 34.9375 35.75 34.9375C42.4702 34.9375 47.9375 29.4702 47.9375 22.75C47.9375 16.0298 42.4702 10.5625 35.75 10.5625ZM35.75 33.3125C29.926 33.3125 25.1875 28.574 25.1875 22.75C25.1875 16.926 29.926 12.1875 35.75 12.1875C41.574 12.1875 46.3125 16.926 46.3125 22.75C46.3125 28.574 41.574 33.3125 35.75 33.3125Z" fill="#1C1C1B"/>
<path d="M18.6875 13.8125H4.0625V18.6875H18.6875V13.8125ZM17.0625 17.0625H5.6875V15.4375H17.0625V17.0625Z" fill="#1C1C1B"/>
<path d="M4.0625 20.3125H18.6875V21.9375H4.0625V20.3125Z" fill="#1C1C1B"/>
<path d="M15.4375 23.5625H18.6875V25.1875H15.4375V23.5625Z" fill="#1C1C1B"/>
<path d="M4.0625 23.5625H13.8125V25.1875H4.0625V23.5625Z" fill="#1C1C1B"/>
<path d="M4.0625 26.8125H18.6875V28.4375H4.0625V26.8125Z" fill="#1C1C1B"/>
<path d="M4.0625 36.5625H10.5625V30.0625H4.0625V36.5625ZM5.6875 31.6875H8.9375V34.9375H5.6875V31.6875Z" fill="#1C1C1B"/>
<path d="M18.6875 36.5625V30.0625H12.1875V36.5625H18.6875ZM13.8125 31.6875H17.0625V34.9375H13.8125V31.6875Z" fill="#1C1C1B"/>
</g>
<defs>
<clipPath id="clip0_2813_327">
<rect width="52" height="52" fill="white"/>
</clipPath>
</defs>
</svg>
