<svg width="97" height="97" viewBox="0 0 97 97" fill="none" xmlns="http://www.w3.org/2000/svg">
<g clip-path="url(#clip0_215_1804)">
<path d="M93.1852 54.4163C92.4793 54.52 91.7579 54.5749 91.023 54.5749C84.2586 54.5749 78.5339 50.1499 76.5704 44.0381C76.2347 42.9935 75.3814 42.189 74.3034 41.9837C63.0697 39.8449 54.5751 29.9828 54.5751 18.1266C54.5751 13.147 56.0782 8.52171 58.6494 4.66937C59.2608 3.75337 58.7506 2.53329 57.6703 2.31939C54.7043 1.73209 51.6389 1.42139 48.5002 1.42139C22.4993 1.42139 1.42151 22.4992 1.42151 48.5001C1.42151 74.5008 22.4993 95.5788 48.5002 95.5788C71.9335 95.5788 91.31 78.5216 94.9545 56.1123C95.1201 55.0953 94.2045 54.2667 93.1852 54.4163Z" fill="#F5B97D"/>
<path d="M27.2394 39.3875C30.5939 39.3875 33.3133 36.6681 33.3133 33.3136C33.3133 29.9591 30.5939 27.2397 27.2394 27.2397C23.8849 27.2397 21.1655 29.9591 21.1655 33.3136C21.1655 36.6681 23.8849 39.3875 27.2394 39.3875Z" fill="#CD916E"/>
<path d="M30.2762 68.2431C32.7926 68.2431 34.8325 66.2031 34.8325 63.6867C34.8325 61.1703 32.7926 59.1304 30.2762 59.1304C27.7598 59.1304 25.7198 61.1703 25.7198 63.6867C25.7198 66.2031 27.7598 68.2431 30.2762 68.2431Z" fill="#CD916E"/>
<path d="M68.0567 13.7308L67.621 16.345C67.2629 18.4936 68.4758 20.5952 70.5152 21.3601L74.3727 22.8065C76.9206 23.7619 79.7325 22.2855 80.3924 19.6455L81.7672 14.1457C82.6241 10.7179 79.4224 7.66145 76.038 8.67673L71.2412 10.1158C69.5776 10.6152 68.3424 12.0172 68.0567 13.7308Z" fill="#F5B97D"/>
<path d="M83.4297 30.2763L81.5956 31.1934C80.1571 31.9126 79.5287 33.6285 80.1622 35.1066L81.6379 38.5495C82.5313 40.6341 85.3112 41.0397 86.763 39.2975L89.1368 36.4489C90.2499 35.1132 90.0168 33.1177 88.6259 32.0746L86.6106 30.5631C85.6901 29.8728 84.4586 29.7617 83.4297 30.2763Z" fill="#F5B97D"/>
<path d="M92.5415 24.2008C94.2187 24.2008 95.5784 22.8411 95.5784 21.1639C95.5784 19.4866 94.2187 18.127 92.5415 18.127C90.8642 18.127 89.5045 19.4866 89.5045 21.1639C89.5045 22.8411 90.8642 24.2008 92.5415 24.2008Z" fill="#F5B97D"/>
<path d="M54.1953 89.8835C28.1944 89.8835 7.11659 68.8057 7.11659 42.8048C7.11659 31.2542 11.2829 20.6814 18.186 12.4902C7.93806 21.1263 1.42163 34.0494 1.42163 48.4998C1.42163 74.5005 22.4994 95.5785 48.5004 95.5785C62.9598 95.5785 75.8686 89.0784 84.4959 78.8394C76.3136 85.7305 65.7501 89.8835 54.1953 89.8835Z" fill="#E3AA75"/>
<path d="M75.0483 19.2816C72.5009 18.3264 70.9858 15.7015 71.4331 13.0177L71.9524 9.90234L71.2416 10.1157C69.5776 10.6149 68.3424 12.017 68.0567 13.7306L67.621 16.3449C67.2629 18.4935 68.4758 20.5951 70.5152 21.3599L74.3727 22.8064C76.4184 23.5735 78.6149 22.7567 79.7505 21.045L75.0483 19.2816Z" fill="#E3AA75"/>
<path d="M84.8783 36.5921L83.2071 32.6925C82.8932 31.9601 82.867 31.1803 83.0572 30.4619L81.5956 31.1926C80.1573 31.9118 79.5287 33.6277 80.1622 35.1058L81.6379 38.5487C82.5313 40.6333 85.3112 41.0391 86.7629 39.2967L87.3529 38.5887C86.309 38.3759 85.3545 37.7038 84.8783 36.5921Z" fill="#E3AA75"/>
<path d="M30.4662 36.161C27.1112 36.161 24.3916 33.4413 24.3916 30.0864C24.3916 29.2462 24.5625 28.446 24.8709 27.7183C22.6926 28.6415 21.1644 30.799 21.1644 33.3136C21.1644 36.6684 23.8842 39.3882 27.2391 39.3882C29.7539 39.3882 31.9113 37.8599 32.8344 35.6817C32.1065 35.9902 31.3062 36.161 30.4662 36.161Z" fill="#B67F5F"/>
<path d="M32.6492 65.8701C30.1329 65.8701 28.0932 63.8303 28.0932 61.3141C28.0932 60.6715 28.2295 60.0619 28.4695 59.5073C26.8531 60.2072 25.7203 61.8135 25.7203 63.687C25.7203 66.2034 27.7602 68.243 30.2763 68.243C32.15 68.243 33.7562 67.1103 34.456 65.4939C33.9015 65.7339 33.2918 65.8701 32.6492 65.8701Z" fill="#B67F5F"/>
<path d="M59.1315 74.3162C62.486 74.3162 65.2054 71.5968 65.2054 68.2423C65.2054 64.8878 62.486 62.1685 59.1315 62.1685C55.777 62.1685 53.0576 64.8878 53.0576 68.2423C53.0576 71.5968 55.777 74.3162 59.1315 74.3162Z" fill="#CD916E"/>
<path d="M62.3582 71.0903C59.0031 71.0903 56.2835 68.3705 56.2835 65.0156C56.2835 64.1754 56.4544 63.3752 56.7629 62.6475C54.5845 63.5707 53.0564 65.7282 53.0564 68.2428C53.0564 71.5976 55.7762 74.3174 59.131 74.3174C61.6458 74.3174 63.8033 72.7891 64.7263 70.6109C63.9986 70.9194 63.1984 71.0903 62.3582 71.0903Z" fill="#B67F5F"/>
<path d="M46.9177 43.9435C48.5949 43.9435 49.9546 42.5838 49.9546 40.9066C49.9546 39.2293 48.5949 37.8696 46.9177 37.8696C45.2404 37.8696 43.8807 39.2293 43.8807 40.9066C43.8807 42.5838 45.2404 43.9435 46.9177 43.9435Z" fill="#CD916E"/>
<path d="M27.2391 25.8179C23.1059 25.8179 19.7435 29.1805 19.7435 33.3134C19.7435 37.4463 23.1061 40.8089 27.2391 40.8089C31.3722 40.8089 34.7348 37.4463 34.7348 33.3134C34.7348 29.1805 31.372 25.8179 27.2391 25.8179ZM27.2391 37.9673C24.6729 37.9673 22.5853 35.8795 22.5853 33.3136C22.5853 30.7476 24.6731 28.6599 27.2391 28.6599C29.805 28.6599 31.893 30.7476 31.893 33.3136C31.893 35.8795 29.805 37.9673 27.2391 37.9673Z" fill="black"/>
<path d="M51.6353 68.2431C51.6353 72.3762 54.9979 75.7386 59.1308 75.7386C63.2637 75.7386 66.6263 72.376 66.6263 68.2431C66.6263 64.1102 63.2637 60.7476 59.1308 60.7476C54.9979 60.7476 51.6353 64.11 51.6353 68.2431ZM59.131 63.5892C61.6971 63.5892 63.7847 65.6769 63.7847 68.2429C63.7847 70.8088 61.6969 72.8966 59.131 72.8966C56.565 72.8966 54.4772 70.8088 54.4772 68.2429C54.4772 65.6769 56.5648 63.5892 59.131 63.5892Z" fill="black"/>
<path d="M30.2762 57.71C26.9805 57.71 24.2993 60.3913 24.2993 63.687C24.2993 66.9827 26.9805 69.6639 30.2762 69.6639C33.5719 69.6639 36.2532 66.9827 36.2532 63.687C36.2532 60.3913 33.5719 57.71 30.2762 57.71ZM30.2762 66.8221C28.5474 66.8221 27.1411 65.4158 27.1411 63.687C27.1411 61.9583 28.5474 60.5518 30.2762 60.5518C32.0049 60.5518 33.4114 61.9583 33.4114 63.687C33.4114 65.4158 32.0049 66.8221 30.2762 66.8221Z" fill="black"/>
<path d="M42.5236 40.9069C42.5236 43.3653 44.5236 45.3652 46.9818 45.3652C49.4399 45.3652 51.44 43.3651 51.44 40.9069C51.44 38.4488 49.4399 36.4487 46.9818 36.4487C44.5236 36.4487 42.5236 38.4488 42.5236 40.9069ZM46.9818 39.2905C47.8731 39.2905 48.5982 40.0158 48.5982 40.9069C48.5982 41.7981 47.873 42.5234 46.9818 42.5234C46.0906 42.5234 45.3654 41.7981 45.3654 40.9069C45.3654 40.0158 46.0904 39.2905 46.9818 39.2905Z" fill="black"/>
<path d="M75.8375 63.5896C76.051 63.5896 76.2678 63.5413 76.4718 63.4393C77.1737 63.0883 77.4583 62.235 77.1072 61.5329L75.5886 58.4954C75.2377 57.7934 74.3842 57.5087 73.6823 57.8599C72.9804 58.2108 72.6958 59.0643 73.0469 59.7662L74.5655 62.8037C74.8147 63.3018 75.3163 63.5896 75.8375 63.5896Z" fill="black"/>
<path d="M59.1321 54.4773C59.3456 54.4773 59.5623 54.429 59.7664 54.327L62.8037 52.8084C63.5056 52.4575 63.7902 51.604 63.4391 50.9021C63.0881 50.2002 62.2349 49.9154 61.5328 50.2667L58.4955 51.7853C57.7936 52.1362 57.509 52.9897 57.8601 53.6916C58.109 54.1895 58.6107 54.4773 59.1321 54.4773Z" fill="black"/>
<path d="M16.856 50.6541C17.105 51.152 17.6067 51.4398 18.128 51.4398C18.3415 51.4398 18.5583 51.3915 18.7623 51.2895C19.4642 50.9387 19.7488 50.0852 19.3977 49.3833L17.8791 46.3459C17.5282 45.644 16.6747 45.3593 15.9728 45.7105C15.2709 46.0614 14.9863 46.9149 15.3374 47.6168L16.856 50.6541Z" fill="black"/>
<path d="M40.2717 74.5649L37.2344 76.0836C36.5325 76.4344 36.2479 77.2879 36.599 77.9899C36.8479 78.4877 37.3496 78.7755 37.871 78.7755C38.0845 78.7755 38.3012 78.7272 38.5053 78.6253L41.5426 77.1066C42.2445 76.7558 42.5291 75.9023 42.178 75.2004C41.8271 74.4984 40.9736 74.2139 40.2717 74.5649Z" fill="black"/>
<path d="M41.9117 17.122L40.3931 15.6032C39.8383 15.0483 38.9386 15.0483 38.3837 15.6032C37.8288 16.1581 37.8288 17.0576 38.3837 17.6125L39.9026 19.1314C40.1799 19.4089 40.5437 19.5476 40.9072 19.5476C41.2708 19.5476 41.6345 19.4089 41.9119 19.1314C42.4666 18.5767 42.4666 17.6771 41.9117 17.122Z" fill="black"/>
<path d="M35.3462 50.5329C34.7913 51.0878 34.7913 51.9875 35.3462 52.5422L36.8649 54.0609C37.1422 54.3382 37.506 54.4771 37.8696 54.4771C38.2331 54.4771 38.5969 54.3384 38.8742 54.0609C39.4291 53.506 39.4291 52.6063 38.8742 52.0515L37.3556 50.5329C36.8009 49.978 35.9011 49.978 35.3462 50.5329Z" fill="black"/>
<path d="M53.1541 83.4297V84.9483C53.1541 85.7331 53.7902 86.3692 54.575 86.3692C55.3597 86.3692 55.9958 85.7331 55.9958 84.9483V83.4297C55.9958 82.645 55.3597 82.0088 54.575 82.0088C53.7902 82.0088 53.1541 82.645 53.1541 83.4297Z" fill="black"/>
<path d="M46.4678 28.2435L47.9864 26.7248C48.5413 26.1699 48.5413 25.2702 47.9864 24.7155C47.4315 24.1606 46.5318 24.1606 45.9771 24.7155L44.4584 26.2342C43.9035 26.7891 43.9035 27.6888 44.4584 28.2435C44.7358 28.5209 45.0995 28.6597 45.4631 28.6597C45.8266 28.6597 46.1904 28.5209 46.4678 28.2435Z" fill="black"/>
<path d="M70.0164 22.69L73.8739 24.1367C74.5514 24.3907 75.2622 24.5167 75.9715 24.5167C76.93 24.5167 77.8856 24.2867 78.7512 23.8321C80.2575 23.0411 81.3582 21.6406 81.7709 19.9899L83.1457 14.4901C83.6737 12.3783 83.0489 10.2202 81.4744 8.7171C79.8996 7.21379 77.7149 6.68995 75.6297 7.31553L70.8332 8.75461C68.6668 9.40444 67.0267 11.2658 66.655 13.4968L66.2192 16.1111C65.7509 18.9226 67.3478 21.6893 70.0164 22.69ZM69.0226 16.5785L69.4583 13.9642C69.6532 12.7939 70.5136 11.8175 71.6499 11.4767L76.4465 10.0376C76.7503 9.94646 77.0582 9.90194 77.3621 9.90194C78.1521 9.90194 78.9156 10.2034 79.5122 10.7729C80.338 11.5612 80.6658 12.6932 80.389 13.8009L79.0141 19.3007C78.7944 20.1794 78.2319 20.8951 77.4301 21.3161C76.6283 21.7371 75.7199 21.7939 74.8717 21.476L71.0143 20.0293C69.6144 19.5044 68.7768 18.0532 69.0226 16.5785Z" fill="black"/>
<path d="M80.9601 29.9221C78.8517 30.9762 77.9275 33.4992 78.856 35.6659L80.3317 39.1089C80.9476 40.5457 82.2387 41.5384 83.7856 41.7643C84.0054 41.7963 84.2246 41.812 84.4419 41.812C85.754 41.812 86.9955 41.237 87.8543 40.2068L90.2282 37.3581C91.0182 36.4099 91.3745 35.2126 91.2313 33.9868C91.0881 32.7611 90.4655 31.678 89.4781 30.9376L87.4629 29.4261C86.1034 28.4063 84.3144 28.2449 82.794 29.0052L80.9601 29.9221ZM84.0652 31.5469C84.2958 31.4315 84.5434 31.3746 84.7897 31.3746C85.1319 31.3746 85.4712 31.4845 85.7578 31.6994L87.773 33.2108C88.1311 33.4793 88.3569 33.872 88.4086 34.3165C88.4604 34.7609 88.3313 35.1952 88.0449 35.5388L85.671 38.3874C85.3027 38.8294 84.7649 39.0352 84.1958 38.952C83.6265 38.869 83.1701 38.518 82.9435 37.9892L81.4678 34.5463C81.1312 33.7606 81.4663 32.8457 82.2308 32.4636L84.0652 31.5469C84.0651 31.5469 84.0651 31.5469 84.0652 31.5469Z" fill="black"/>
<path d="M92.5418 25.6223C95.0002 25.6223 97 23.6222 97 21.1641C97 18.7059 95 16.7061 92.5418 16.7061C90.0837 16.7061 88.0836 18.7061 88.0836 21.1643C88.0836 23.6224 90.0835 25.6223 92.5418 25.6223ZM92.5418 19.5479C93.4332 19.5479 94.1582 20.2731 94.1582 21.1643C94.1582 22.0555 93.433 22.7807 92.5418 22.7807C91.6506 22.7807 90.9254 22.0555 90.9254 21.1643C90.9254 20.2729 91.6504 19.5479 92.5418 19.5479Z" fill="black"/>
<path d="M92.9789 53.0104C92.3302 53.1055 91.6722 53.1538 91.0232 53.1538C85.0228 53.1538 79.7587 49.3159 77.9233 43.6031C77.4214 42.0415 76.1361 40.886 74.5692 40.5876C63.8071 38.5387 55.9959 29.0923 55.9959 18.1264C55.9959 13.5981 57.3221 9.21719 59.8314 5.45769C60.3818 4.633 60.485 3.59782 60.1076 2.68845C59.7295 1.77737 58.9215 1.11826 57.9464 0.925209C53.1123 -0.0320975 48.1522 -0.247506 43.2048 0.285426C33.304 1.35148 24.0759 5.43514 16.5179 12.0956C15.9291 12.6143 15.8724 13.5123 16.3913 14.1009C16.9101 14.6895 17.8081 14.7464 18.3967 14.2275C25.5118 7.95752 34.1954 4.11352 43.5089 3.11112C48.171 2.60907 52.8427 2.81178 57.3943 3.7132C57.4274 3.71983 57.464 3.73272 57.483 3.77818C57.5008 3.82119 57.4862 3.85283 57.4676 3.88049C54.6457 8.1087 53.1541 13.0351 53.1541 18.1266C53.1541 30.4553 61.937 41.0756 74.0376 43.3794C74.5821 43.483 75.0343 43.9019 75.2177 44.4725C77.432 51.3648 83.7838 55.9956 91.0232 55.9956C91.81 55.9956 92.6068 55.9371 93.3917 55.8219C93.4965 55.8064 93.5499 55.8683 93.5522 55.884C92.1824 64.3071 88.461 72.1704 82.7903 78.6241C82.2723 79.2137 82.3303 80.1115 82.9199 80.6295C83.1897 80.8665 83.5242 80.983 83.8573 80.983C84.2519 80.983 84.6443 80.8197 84.9253 80.5001C90.9485 73.6449 94.9017 65.2908 96.3572 56.3404C96.5052 55.4303 96.218 54.5304 95.5687 53.8711C94.9001 53.1921 93.932 52.8704 92.9789 53.0104Z" fill="black"/>
<path d="M78.6249 82.7919C70.2936 90.1215 59.5951 94.1578 48.5002 94.1578C42.1048 94.1578 35.9196 92.8619 30.116 90.3058C24.509 87.8365 19.5235 84.3157 15.2985 79.8414C11.0802 75.3743 7.85644 70.2062 5.71675 64.4805C3.49182 58.5264 2.5508 52.2441 2.91967 45.8082C3.49466 35.7759 7.51201 26.0414 14.2315 18.3976C14.7497 17.8082 14.6919 16.9104 14.1025 16.3924C13.5133 15.8743 12.6153 15.9318 12.0973 16.5214C4.96065 24.6395 0.693782 34.9825 0.0826064 45.6457C-0.308993 52.4779 0.69094 59.1495 3.05494 65.4753C5.32818 71.5583 8.75236 77.0483 13.2325 81.7924C17.7197 86.5442 23.015 90.2835 28.9708 92.9066C35.1375 95.6225 41.7081 96.9994 48.5002 96.9994C60.2865 96.9994 71.6516 92.7113 80.502 84.9254C81.0912 84.407 81.1487 83.5092 80.6303 82.92C80.1122 82.331 79.2141 82.2736 78.6249 82.7919Z" fill="black"/>
</g>
<defs>
<clipPath id="clip0_215_1804">
<rect width="97" height="97" fill="white"/>
</clipPath>
</defs>
</svg>
