<svg width="52" height="52" viewBox="0 0 52 52" fill="none" xmlns="http://www.w3.org/2000/svg">
<rect width="52" height="52" fill="white"/>
<g clip-path="url(#clip0_2813_389)">
<path d="M46.3125 47.9375H34.9375V36.5625H46.3125V47.9375Z" fill="#2AB1A3"/>
<path d="M28.4375 23.5625H47.9375V31.6875H28.4375V23.5625Z" fill="#2AB1A3"/>
<path d="M17.0625 18.6875H15.4375C15.4375 20.0314 16.5311 21.125 17.875 21.125C19.2189 21.125 20.3125 20.0314 20.3125 18.6875H18.6875C18.6875 19.1352 18.3227 19.5 17.875 19.5C17.4273 19.5 17.0625 19.1352 17.0625 18.6875Z" fill="#1C1C1B"/>
<path d="M49.5625 13.8125H26.8125C25.9163 13.8125 25.1875 14.5413 25.1875 15.4375V40.0595C24.6813 40.3195 24.2824 40.7704 24.0939 41.3368C23.8469 42.0786 23.3261 42.679 22.6273 43.0284L20.3003 43.0357C20.2378 39.3234 18.4364 35.8946 15.4375 33.7236V31.395L16.7651 31.2747C19.7137 31.0066 21.9375 28.5716 21.9375 25.6108V24.0654L23.5625 23.2529V22.75C23.5625 20.0891 22.1366 17.0942 21.4451 15.7958C22.7354 14.7526 23.5625 13.1593 23.5625 11.375C23.5625 8.23875 21.0112 5.6875 17.875 5.6875H14.0831C6.76569 5.6875 0.8125 11.6407 0.8125 18.9581C0.8125 23.1124 2.79662 27.0814 6.12056 29.5742L7.3125 30.4688V33.3946C5.46081 33.7724 4.0625 35.4136 4.0625 37.375V44.6875C4.0625 48.2714 6.97856 51.1875 10.5625 51.1875H49.5625C50.4587 51.1875 51.1875 50.4587 51.1875 49.5625V15.4375C51.1875 14.5413 50.4587 13.8125 49.5625 13.8125ZM49.5625 15.4375V20.3125H26.8125V15.4375H49.5625ZM18.6761 43.0414L12.1875 43.0625V37.375C12.1875 37.0931 12.1582 36.8176 12.103 36.5511C13.169 36.5211 14.1489 36.0588 14.8281 35.2747C17.2079 37.1491 18.6184 39.9888 18.6761 43.0414ZM21.9188 22.2576L20.3125 23.0604V25.1875H19.6917C18.8809 25.1875 18.1521 24.7366 17.7897 24.0118L16.3361 24.739C16.9764 26.0187 18.2617 26.8133 19.6917 26.8133H20.1167C19.6446 28.3506 18.3056 29.5035 16.6181 29.6571L12.1144 30.0666L12.2614 31.6851L13.8125 31.5437V33.8869C13.4306 34.5321 12.7554 34.9375 11.9958 34.9375H11.3539C10.7681 34.1632 9.92225 33.5953 8.9375 33.3946V24.7812L6.44637 22.9125C5.97106 22.5566 5.6875 21.9895 5.6875 21.3956C5.6875 20.3507 6.53819 19.5 7.58306 19.5H8.71L8.96756 18.7289C9.29987 17.732 10.2294 17.0625 11.2799 17.0625H13.6979C14.4414 17.0625 15.1653 16.8521 15.7958 16.471C16.406 16.8382 17.1121 17.0625 17.875 17.0625C18.6436 17.0625 19.3765 16.9073 20.0468 16.6294C20.6367 17.7507 21.7596 20.1264 21.9188 22.2576ZM7.09556 28.275C4.17869 26.0869 2.4375 22.6046 2.4375 18.9581C2.4375 12.5369 7.66188 7.3125 14.0831 7.3125H17.875C20.1151 7.3125 21.9375 9.13494 21.9375 11.375C21.9375 13.6151 20.1151 15.4375 17.875 15.4375C16.5311 15.4375 15.4375 14.3439 15.4375 13C15.4375 12.5523 15.8023 12.1875 16.25 12.1875C16.6977 12.1875 17.0625 12.5523 17.0625 13V13.8125H18.6875V13C18.6875 11.6561 17.5939 10.5625 16.25 10.5625C14.9061 10.5625 13.8125 11.6561 13.8125 13C13.8125 13.8507 14.0774 14.6388 14.5259 15.2921C14.2618 15.3871 13.9823 15.4375 13.6979 15.4375H11.2799C9.65088 15.4375 8.19731 16.4036 7.55625 17.875C5.62738 17.8896 4.0625 19.4634 4.0625 21.3956C4.0625 22.4973 4.589 23.5511 5.47056 24.2117L7.3125 25.5938V28.4375L7.09556 28.275ZM5.6875 44.6875V37.375C5.6875 36.0311 6.78113 34.9375 8.125 34.9375C9.46887 34.9375 10.5625 36.0311 10.5625 37.375V43.5386L9.17556 44.9256L10.3244 46.0744L11.7114 44.6875H21.9375V49.5625H10.5625C7.87394 49.5625 5.6875 47.3761 5.6875 44.6875ZM27.625 49.5625H23.5625V44.3503C24.5391 43.7954 25.2777 42.9244 25.6352 41.8503C25.7173 41.6032 25.948 41.4375 26.208 41.4375C26.5419 41.4375 26.8125 41.7081 26.8125 42.042V43.875L26.8385 44.6818L27.6445 44.6875C28.9778 44.6989 30.0625 45.7917 30.0625 47.125C30.0625 48.4689 28.9689 49.5625 27.625 49.5625ZM30.8734 49.5625C31.3836 48.8833 31.6875 48.0391 31.6875 47.125C31.6875 45.1742 30.2949 43.5321 28.4375 43.147V42.0412C28.4375 41.0215 27.7493 40.1594 26.8125 39.8954V21.9375H49.5625V49.5625H30.8734Z" fill="#1C1C1B"/>
<path d="M25.5312 5.53881L27.5308 6.94931L26.5924 9.46644C26.4681 9.80037 26.5753 10.1766 26.8581 10.3943C27.1416 10.6129 27.5324 10.6202 27.8233 10.413L30.0626 8.82781L32.301 10.413C32.4424 10.5129 32.6065 10.5625 32.7706 10.5625C32.9453 10.5625 33.12 10.5064 33.2662 10.3935C33.549 10.1757 33.6562 9.80037 33.5319 9.46562L32.5935 6.9485L34.1251 5.8695L35.6558 6.94931L34.7174 9.46644C34.5931 9.80037 34.7003 10.1766 34.9831 10.3943C35.2658 10.6129 35.6582 10.6202 35.9483 10.413L38.1876 8.82781L40.426 10.413C40.5674 10.5129 40.7315 10.5625 40.8956 10.5625C41.0703 10.5625 41.245 10.5064 41.3912 10.3935C41.674 10.1757 41.7812 9.80037 41.6569 9.46562L40.7185 6.9485L42.2501 5.8695L43.7808 6.94931L42.8424 9.46644C42.7181 9.80037 42.8253 10.1766 43.1081 10.3943C43.3916 10.6129 43.7832 10.6202 44.0733 10.413L46.3126 8.82781L48.551 10.413C48.6924 10.5129 48.8565 10.5625 49.0206 10.5625C49.1953 10.5625 49.37 10.5064 49.5162 10.3935C49.799 10.1757 49.9062 9.80037 49.7819 9.46562L48.8435 6.9485L50.8431 5.538C51.1323 5.33406 51.2558 4.966 51.1486 4.62881C51.0421 4.29163 50.7293 4.0625 50.3751 4.0625H47.8791L47.0917 1.39506C46.9894 1.04975 46.6725 0.8125 46.3126 0.8125C45.9526 0.8125 45.6357 1.04975 45.5334 1.39506L44.7461 4.0625H42.2501H39.7541L38.9667 1.39506C38.8644 1.04975 38.5475 0.8125 38.1876 0.8125C37.8276 0.8125 37.5107 1.04975 37.4084 1.39506L36.6211 4.0625H34.1251H31.6291L30.8417 1.39506C30.7394 1.04975 30.4225 0.8125 30.0626 0.8125C29.7026 0.8125 29.3857 1.04975 29.2834 1.39506L28.4961 4.0625H26.0001C25.6458 4.0625 25.333 4.29163 25.2257 4.62962C25.1185 4.96681 25.242 5.33488 25.5312 5.53881ZM45.3538 5.6875C45.7137 5.6875 46.0306 5.45025 46.133 5.10494L46.3126 4.49637L46.4921 5.10575C46.5945 5.45025 46.9114 5.6875 47.2713 5.6875H47.8132L47.3948 5.98244C47.0934 6.19531 46.9731 6.5845 47.1023 6.92981L47.3379 7.56275L46.7814 7.16869C46.6416 7.06956 46.4775 7.01919 46.3126 7.01919C46.1476 7.01919 45.9835 7.06956 45.8429 7.16869L45.2864 7.56275L45.522 6.92981C45.6512 6.5845 45.5309 6.19531 45.2295 5.98244L44.8111 5.6875H45.3538ZM37.2288 5.6875C37.5887 5.6875 37.9056 5.45025 38.008 5.10494L38.1876 4.49637L38.3671 5.10575C38.4695 5.45025 38.7864 5.6875 39.1463 5.6875H39.6882L39.2698 5.98244C38.9684 6.19531 38.8481 6.5845 38.9773 6.92981L39.2129 7.56275L38.6564 7.16869C38.5166 7.06956 38.3525 7.01919 38.1876 7.01919C38.0226 7.01919 37.8585 7.06956 37.7179 7.16869L37.1614 7.56275L37.397 6.92981C37.5262 6.5845 37.4059 6.19531 37.1045 5.98244L36.6861 5.6875H37.2288ZM29.1038 5.6875C29.4637 5.6875 29.7806 5.45025 29.883 5.10494L30.0626 4.49637L30.2421 5.10575C30.3445 5.45025 30.6614 5.6875 31.0213 5.6875H31.5632L31.1448 5.98244C30.8434 6.19531 30.7231 6.5845 30.8523 6.92981L31.0879 7.56275L30.5314 7.16869C30.3916 7.06956 30.2275 7.01919 30.0626 7.01919C29.8976 7.01919 29.7335 7.06956 29.5929 7.16869L29.0364 7.56275L29.272 6.92981C29.4012 6.5845 29.2809 6.19531 28.9795 5.98244L28.5611 5.6875H29.1038Z" fill="#1C1C1B"/>
<path d="M40.5575 42.6587L38.7619 40.8631L37.613 42.0119L40.6924 45.0913L47.7595 36.2578L46.4904 35.2422L40.5575 42.6587Z" fill="#1C1C1B"/>
<path d="M28.4375 17.0625H30.0625V18.6875H28.4375V17.0625Z" fill="#1C1C1B"/>
<path d="M31.6875 17.0625H33.3125V18.6875H31.6875V17.0625Z" fill="#1C1C1B"/>
<path d="M34.9375 17.0625H36.5625V18.6875H34.9375V17.0625Z" fill="#1C1C1B"/>
<path d="M28.4375 23.5625H33.3125V25.1875H28.4375V23.5625Z" fill="#1C1C1B"/>
<path d="M34.9375 23.5625H47.9375V25.1875H34.9375V23.5625Z" fill="#1C1C1B"/>
<path d="M28.4375 26.8125H33.3125V28.4375H28.4375V26.8125Z" fill="#1C1C1B"/>
<path d="M34.9375 26.8125H47.9375V28.4375H34.9375V26.8125Z" fill="#1C1C1B"/>
<path d="M28.4375 30.0625H44.6875V31.6875H28.4375V30.0625Z" fill="#1C1C1B"/>
<path d="M46.3125 30.0625H47.9375V31.6875H46.3125V30.0625Z" fill="#1C1C1B"/>
<path d="M28.4375 33.3125H38.1875V34.9375H28.4375V33.3125Z" fill="#1C1C1B"/>
<path d="M28.4375 36.5625H30.0625V38.1875H28.4375V36.5625Z" fill="#1C1C1B"/>
<path d="M31.6875 36.5625H33.3125V38.1875H31.6875V36.5625Z" fill="#1C1C1B"/>
</g>
<defs>
<clipPath id="clip0_2813_389">
<rect width="52" height="52" fill="white"/>
</clipPath>
</defs>
</svg>
