<svg width="52" height="52" viewBox="0 0 52 52" fill="none" xmlns="http://www.w3.org/2000/svg">
<rect width="52" height="52" fill="white"/>
<g clip-path="url(#clip0_2813_346)">
<path d="M21.9375 34.9375H4.0625V28.4375H21.9375V34.9375Z" fill="#2AB1A3"/>
<path d="M25.1875 40.625H21.9375V36.5625H4.0625V40.625V43.875V47.9375H21.9375V43.875H25.1875V40.625Z" fill="#2AB1A3"/>
<path d="M36.0864 23.5625C36.6104 23.5625 37.1028 23.3586 37.4733 22.9881L40.1489 20.3125H48.75C50.0939 20.3125 51.1875 19.2189 51.1875 17.875V6.5C51.1875 5.15613 50.0939 4.0625 48.75 4.0625H31.6875V2.4375C31.6875 1.54131 30.9587 0.8125 30.0625 0.8125H7.64887C7.215 0.8125 6.80713 0.9815 6.5 1.28862L1.28862 6.5C0.9815 6.80713 0.8125 7.215 0.8125 7.64887V49.5625C0.8125 50.4587 1.54131 51.1875 2.4375 51.1875H30.0625C30.9587 51.1875 31.6875 50.4587 31.6875 49.5625V43.0625H39.4761L42.1517 45.7381C42.5222 46.1086 43.0146 46.3125 43.5386 46.3125C44.6201 46.3125 45.5 45.4326 45.5 44.3511V43.0625H48.75C50.0939 43.0625 51.1875 41.9689 51.1875 40.625V29.25C51.1875 27.9061 50.0947 26.8125 48.7516 26.8125H31.6875V20.3125H34.125V21.6011C34.125 22.6826 35.0049 23.5625 36.0864 23.5625ZM6.5 3.58637V6.5H3.58637L6.5 3.58637ZM2.4375 49.5625V8.125H8.125V2.4375H30.0625V4.212C29.1192 4.54838 28.4375 5.44212 28.4375 6.5V17.875C28.4375 18.9329 29.1192 19.8266 30.0625 20.163V26.9628C29.1192 27.2992 28.4375 28.1929 28.4375 29.2508V40.6258C28.4375 41.6837 29.1192 42.5774 30.0625 42.9138V49.5625H2.4375ZM49.5625 29.25V40.625C49.5625 41.0727 49.1977 41.4375 48.75 41.4375H43.875V44.3511C43.875 44.6257 43.4939 44.7826 43.3006 44.5892L40.1489 41.4375H30.875C30.4273 41.4375 30.0625 41.0727 30.0625 40.625V29.25C30.0625 28.8023 30.4273 28.4375 30.875 28.4375H48.7516C49.1993 28.4375 49.5625 28.8023 49.5625 29.25ZM30.875 18.6875C30.4273 18.6875 30.0625 18.3227 30.0625 17.875V6.5C30.0625 6.05231 30.4273 5.6875 30.875 5.6875H48.75C49.1977 5.6875 49.5625 6.05231 49.5625 6.5V17.875C49.5625 18.3227 49.1977 18.6875 48.75 18.6875H39.4761L36.3244 21.8392C36.1302 22.0326 35.75 21.8757 35.75 21.6011V18.6875H30.875Z" fill="#1C1C1B"/>
<path d="M46.8593 8.72624L45.7657 7.52374L37.4018 15.1279L35.5119 13.2381L34.363 14.3869L37.3482 17.3721L46.8593 8.72624Z" fill="#1C1C1B"/>
<path d="M4.0625 36.5625H21.9375V38.1875H4.0625V36.5625Z" fill="#1C1C1B"/>
<path d="M4.0625 39.8125H25.1875V41.4375H4.0625V39.8125Z" fill="#1C1C1B"/>
<path d="M4.0625 43.0625H25.1875V44.6875H4.0625V43.0625Z" fill="#1C1C1B"/>
<path d="M4.0625 46.3125H8.9375V47.9375H4.0625V46.3125Z" fill="#1C1C1B"/>
<path d="M10.5625 46.3125H15.4375V47.9375H10.5625V46.3125Z" fill="#1C1C1B"/>
<path d="M17.0625 46.3125H21.9375V47.9375H17.0625V46.3125Z" fill="#1C1C1B"/>
<path d="M16.25 5.6875C10.426 5.6875 5.6875 10.426 5.6875 16.25C5.6875 22.074 10.426 26.8125 16.25 26.8125C22.074 26.8125 26.8125 22.074 26.8125 16.25C26.8125 10.426 22.074 5.6875 16.25 5.6875ZM16.25 25.1875C13.7077 25.1875 11.4164 24.1158 9.78737 22.4063C10.3911 21.3826 11.2166 20.5213 12.1981 19.8916L16.25 23.8916L20.3019 19.8916C21.2834 20.5213 22.1089 21.3826 22.7126 22.4063C21.0836 24.1158 18.7923 25.1875 16.25 25.1875ZM13 13.8125C13 12.0201 14.4576 10.5625 16.25 10.5625C18.0424 10.5625 19.5 12.0201 19.5 13.8125C19.5 15.6049 18.0424 17.0625 16.25 17.0625C14.4576 17.0625 13 15.6049 13 13.8125ZM13.7499 19.1401C14.5446 18.8565 15.3855 18.6875 16.25 18.6875C17.1145 18.6875 17.9554 18.8565 18.7501 19.1401L16.25 21.6084L13.7499 19.1401ZM23.7859 21.0348C22.6907 19.4456 21.1112 18.2463 19.3123 17.6004C20.4165 16.7058 21.125 15.3408 21.125 13.8125C21.125 11.1239 18.9386 8.9375 16.25 8.9375C13.5614 8.9375 11.375 11.1239 11.375 13.8125C11.375 15.3408 12.0835 16.7058 13.1877 17.6004C11.3888 18.2463 9.80931 19.4456 8.71406 21.0348C7.83169 19.6495 7.3125 18.0107 7.3125 16.25C7.3125 11.3222 11.3222 7.3125 16.25 7.3125C21.1778 7.3125 25.1875 11.3222 25.1875 16.25C25.1875 18.0107 24.6683 19.6495 23.7859 21.0348Z" fill="#1C1C1B"/>
<path d="M36.3244 39.5744L39.8125 36.0864L43.3005 39.5744L44.4494 38.4255L40.9614 34.9375L44.4494 31.4494L43.3005 30.3005L39.8125 33.7886L36.3244 30.3005L35.1755 31.4494L38.6636 34.9375L35.1755 38.4255L36.3244 39.5744Z" fill="#1C1C1B"/>
</g>
<defs>
<clipPath id="clip0_2813_346">
<rect width="52" height="52" fill="white"/>
</clipPath>
</defs>
</svg>
