<svg width="52" height="52" viewBox="0 0 52 52" fill="none" xmlns="http://www.w3.org/2000/svg">
<rect width="52" height="52" fill="white"/>
<g clip-path="url(#clip0_2814_547)">
<path d="M31.4551 8.9375H20.5449C18.4389 12.6352 16.25 17.6889 16.25 22.75C16.25 27.9378 17.6182 33.1224 18.7671 36.5625H33.2329C34.3818 33.1224 35.75 27.9378 35.75 22.75C35.75 17.6889 33.5611 12.6352 31.4551 8.9375ZM26 27.625C22.4104 27.625 19.5 24.7146 19.5 21.125C19.5 17.5354 22.4104 14.625 26 14.625C29.5896 14.625 32.5 17.5354 32.5 21.125C32.5 24.7146 29.5896 27.625 26 27.625Z" fill="#2AB1A3"/>
<path d="M29.8244 40.0505H22.1756L18.3885 43.8384L24.8186 51.1875H27.1814L33.6115 43.8384L29.8244 40.0505Z" fill="#2AB1A3"/>
<path d="M43.0625 30.0625C41.9152 30.0625 40.7778 30.3087 39.7321 30.7791C38.8001 29.5742 37.5562 28.6609 36.1368 28.1336C36.3976 26.3916 36.5625 24.5757 36.5625 22.75C36.5625 14.924 31.5023 7.12644 29.328 4.13725C28.5537 3.07288 27.3089 2.4375 26 2.4375C24.6911 2.4375 23.4463 3.07288 22.672 4.13725C20.4977 7.12644 15.4375 14.924 15.4375 22.75C15.4375 23.1782 15.4489 23.6056 15.4659 24.0321C11.2434 25.2842 8.073 28.9542 7.44006 33.3141C7.397 33.3125 7.35475 33.3125 7.3125 33.3125C3.72856 33.3125 0.8125 36.2286 0.8125 39.8125C0.8125 43.3964 3.72856 46.3125 7.3125 46.3125H20.553L19.1311 44.6875H7.3125C4.62394 44.6875 2.4375 42.5011 2.4375 39.8125C2.4375 37.1239 4.62394 34.9375 7.3125 34.9375C7.53188 34.9375 7.76344 34.957 8.04131 34.9984L8.91069 35.1292L8.97244 34.2517C9.24625 30.3339 11.9096 26.9458 15.5724 25.7026C15.7357 27.5665 16.0355 29.3808 16.4011 31.0716C14.4341 31.6274 12.9984 33.436 12.9984 35.5404C12.9984 36.3521 13.2112 37.1524 13.6134 37.8544L16.8829 43.5768L19.5487 40.911C19.5585 40.9321 19.5666 40.9516 19.5715 40.9614L19.7893 41.4375H23.712C23.621 41.6926 23.5625 41.964 23.5625 42.25V42.5709C23.5625 43.0527 23.7039 43.5199 23.972 43.9229L26 46.9649L28.028 43.9221C28.2961 43.5199 28.4375 43.0527 28.4375 42.5701V42.25C28.4375 41.964 28.379 41.6926 28.288 41.4375H32.2108L32.4277 40.9614C32.4317 40.9516 32.4407 40.9329 32.4504 40.911L35.1162 43.5768L38.3857 37.8552C38.7871 37.1516 39 36.3512 39 35.5396C39 33.4352 37.5643 31.6274 35.5973 31.0708C35.6891 30.6467 35.776 30.2144 35.8589 29.7765C37.0524 30.2867 38.0746 31.1423 38.7879 32.2579L39.2023 32.9062L39.8726 32.5276C40.8452 31.9784 41.9494 31.6875 43.0625 31.6875C46.6464 31.6875 49.5625 34.6036 49.5625 38.1875C49.5625 41.7714 46.6464 44.6875 43.0625 44.6875H32.8681L31.4462 46.3125H43.0625C47.5426 46.3125 51.1875 42.6676 51.1875 38.1875C51.1875 33.7074 47.5426 30.0625 43.0625 30.0625ZM17.2404 40.9232L15.0256 37.0467C14.7631 36.5893 14.625 36.0685 14.625 35.5396C14.625 34.1973 15.5285 33.0444 16.7732 32.6601C17.4744 35.4632 18.304 37.8081 18.8784 39.2852L17.2404 40.9232ZM26.8125 42.25V42.5709C26.8125 42.7318 26.7646 42.8878 26.676 43.0219L26 44.0351L25.324 43.0211C25.2354 42.887 25.1875 42.731 25.1875 42.5709V42.25C25.1875 41.8023 25.5515 41.4375 26 41.4375C26.4485 41.4375 26.8125 41.8023 26.8125 42.25ZM20.8471 39.8125C20.0314 37.8633 17.0625 30.2494 17.0625 22.75C17.0625 15.4009 21.9042 7.95437 23.9858 5.09356C24.4562 4.44762 25.2086 4.0625 26 4.0625C26.7914 4.0625 27.5438 4.44762 28.0142 5.09356C30.0958 7.95437 34.9375 15.4009 34.9375 22.75C34.9375 30.2494 31.9686 37.8633 31.1529 39.8125H20.8471ZM37.375 35.5396C37.375 36.0677 37.2369 36.5893 36.9744 37.0476L34.7596 40.9232L33.1208 39.2844C33.6952 37.8072 34.5247 35.4624 35.2259 32.6592C36.4715 33.0444 37.375 34.1973 37.375 35.5396Z" fill="#1C1C1B"/>
<path d="M4.06251 24.375H5.68751V8.125H3.68795L6.10026 2.6975C6.24001 2.38144 6.76082 2.38144 6.89976 2.6975L9.31207 8.125H7.31251V24.375H8.93751V9.75H11.8129L8.38501 2.03694C8.05432 1.2935 7.31414 0.8125 6.50001 0.8125C5.68589 0.8125 4.9457 1.2935 4.61501 2.03694L1.18707 9.75H4.06251V24.375Z" fill="#1C1C1B"/>
<path d="M43.0625 24.375H44.6875V8.125H42.688L45.1003 2.6975C45.24 2.38144 45.7608 2.38144 45.8998 2.6975L48.3121 8.125H46.3125V24.375H47.9375V9.75H50.813L47.385 2.03694C47.0543 1.2935 46.3141 0.8125 45.5 0.8125C44.6859 0.8125 43.9457 1.2935 43.615 2.03694L40.1871 9.75H43.0625V24.375Z" fill="#1C1C1B"/>
<path d="M26 13.8125C21.9676 13.8125 18.6875 17.0934 18.6875 21.125C18.6875 25.1566 21.9676 28.4375 26 28.4375C30.0324 28.4375 33.3125 25.1566 33.3125 21.125C33.3125 17.0934 30.0324 13.8125 26 13.8125ZM26 15.4375C29.1354 15.4375 31.6875 17.9887 31.6875 21.125C31.6875 21.9984 31.4836 22.8223 31.1309 23.5625H28.288C28.379 23.3074 28.4375 23.036 28.4375 22.75C28.4375 21.6921 27.7558 20.7984 26.8125 20.462V17.0625H25.1875V20.462C24.2442 20.7984 23.5625 21.6921 23.5625 22.75C23.5625 23.036 23.621 23.3074 23.712 23.5625H20.8691C20.5164 22.8223 20.3125 21.9984 20.3125 21.125C20.3125 17.9887 22.8646 15.4375 26 15.4375ZM25.1875 22.75C25.1875 22.3023 25.5515 21.9375 26 21.9375C26.4485 21.9375 26.8125 22.3023 26.8125 22.75C26.8125 23.1977 26.4485 23.5625 26 23.5625C25.5515 23.5625 25.1875 23.1977 25.1875 22.75ZM22.0277 25.1875H29.9731C28.9469 26.1909 27.5454 26.8125 26.0008 26.8125C24.4562 26.8125 23.0531 26.1909 22.0277 25.1875Z" fill="#1C1C1B"/>
<path d="M4.0625 26H5.6875V27.625H4.0625V26Z" fill="#1C1C1B"/>
<path d="M46.3125 26H47.9375V27.625H46.3125V26Z" fill="#1C1C1B"/>
</g>
<defs>
<clipPath id="clip0_2814_547">
<rect width="52" height="52" fill="white"/>
</clipPath>
</defs>
</svg>
