<svg width="52" height="52" viewBox="0 0 52 52" fill="none" xmlns="http://www.w3.org/2000/svg">
<rect width="52" height="52" fill="white"/>
<path d="M46.0993 18.4397C49.3346 18.4397 51.9665 21.0715 51.9665 24.3069L46.0993 18.4397Z" fill="#2AB1A3"/>
<path d="M6.70535 13.4107C3.00819 13.4107 0 10.4025 0 6.70535C0 3.00819 3.00819 0 6.70535 0C10.4025 0 13.4107 3.00819 13.4107 6.70535C13.4107 10.4025 10.4025 13.4107 6.70535 13.4107ZM6.70535 4.19084C5.31902 4.19084 4.19084 5.31902 4.19084 6.70535C4.19084 8.09168 5.31902 9.21986 6.70535 9.21986C8.09168 9.21986 9.21986 8.09168 9.21986 6.70535C9.21986 5.31902 8.09168 4.19084 6.70535 4.19084Z" fill="#2AB1A3"/>
<path d="M20.1161 26.8214C16.8808 26.8214 14.2489 24.1896 14.2489 20.9542C14.2489 17.7189 16.8808 15.087 20.1161 15.087C23.3514 15.087 25.9833 17.7189 25.9833 20.9542C25.9833 24.1896 23.3514 26.8214 20.1161 26.8214ZM20.1161 19.2779C19.1916 19.2779 18.4397 20.0297 18.4397 20.9542C18.4397 21.8787 19.1916 22.6306 20.1161 22.6306C21.0406 22.6306 21.7924 21.8787 21.7924 20.9542C21.7924 20.0297 21.0406 19.2779 20.1161 19.2779Z" fill="#2AB1A3"/>
<path d="M34.3649 16.8146C31.1296 16.8146 28.4977 14.1827 28.4977 10.9474C28.4977 7.71205 31.1296 5.0802 34.3649 5.0802C37.6003 5.0802 40.2321 7.71205 40.2321 10.9474C40.2321 14.1827 37.6003 16.8146 34.3649 16.8146ZM34.3649 9.21992C33.4128 9.21992 32.6375 9.99522 32.6375 10.9474C32.6375 11.8995 33.4128 12.6748 34.3649 12.6748C35.3171 12.6748 36.0924 11.8995 36.0924 10.9474C36.0924 9.99522 35.3171 9.21992 34.3649 9.21992Z" fill="#2AB1A3"/>
<path d="M46.0993 30.1741C42.864 30.1741 40.2321 27.5414 40.2321 24.3069C40.2321 21.0715 42.864 18.4397 46.0993 18.4397C49.3346 18.4397 51.9665 21.0715 51.9665 24.3069C51.9665 27.5414 49.3346 30.1741 46.0993 30.1741ZM46.0993 22.6305C45.1748 22.6305 44.423 23.3824 44.423 24.3069C44.423 25.2314 45.1748 25.9832 46.0993 25.9832C47.0238 25.9832 47.7756 25.2314 47.7756 24.3069C47.7756 23.3824 47.0238 22.6305 46.0993 22.6305Z" fill="#2AB1A3"/>
<path d="M30.1012 14.9655C29.7173 14.559 29.3921 14.098 29.1356 13.5951L24.379 16.936C24.7629 17.3425 25.0881 17.8035 25.3446 18.3064L30.1012 14.9655Z" fill="#1C1C1B"/>
<path d="M16.76 16.1489L11.8886 10.9531C11.5332 11.3865 11.12 11.7695 10.6682 12.1023L15.5371 17.2955C15.8875 16.8572 16.2999 16.4708 16.76 16.1489Z" fill="#1C1C1B"/>
<path d="M42.9101 19.3894L38.8382 14.7358C38.4753 15.1633 38.0537 15.5388 37.5835 15.8481L41.6495 20.4949C42.0141 20.0683 42.4382 19.6961 42.9101 19.3894Z" fill="#1C1C1B"/>
<path d="M6.7054 10.058C8.5544 10.058 10.0581 8.55434 10.0581 6.70534C10.0581 4.85634 8.5544 3.35266 6.7054 3.35266C4.8564 3.35266 3.35272 4.85634 3.35272 6.70534C3.35272 8.55434 4.8564 10.058 6.7054 10.058ZM6.7054 5.029C7.6299 5.029 8.38174 5.78084 8.38174 6.70534C8.38174 7.62984 7.6299 8.38167 6.7054 8.38167C5.7809 8.38167 5.02906 7.62984 5.02906 6.70534C5.02906 5.78084 5.7809 5.029 6.7054 5.029Z" fill="#1C1C1B"/>
<path d="M20.1161 23.4687C21.5024 23.4687 22.6306 22.3405 22.6306 20.9542C22.6306 19.5679 21.5024 18.4397 20.1161 18.4397C18.7297 18.4397 17.6016 19.5679 17.6016 20.9542C17.6016 22.3405 18.7297 23.4687 20.1161 23.4687ZM20.1161 20.116C20.5779 20.116 20.9542 20.4924 20.9542 20.9542C20.9542 21.416 20.5779 21.7924 20.1161 21.7924C19.6542 21.7924 19.2779 21.416 19.2779 20.9542C19.2779 20.4924 19.6542 20.116 20.1161 20.116Z" fill="#1C1C1B"/>
<path d="M34.365 13.4619C35.7513 13.4619 36.8795 12.3337 36.8795 10.9474C36.8795 9.56104 35.7513 8.43286 34.365 8.43286C32.9786 8.43286 31.8505 9.56104 31.8505 10.9474C31.8505 12.3337 32.9786 13.4619 34.365 13.4619ZM34.365 10.1092C34.8268 10.1092 35.2031 10.4855 35.2031 10.9474C35.2031 11.4092 34.8268 11.7855 34.365 11.7855C33.9031 11.7855 33.5268 11.4092 33.5268 10.9474C33.5268 10.4855 33.9031 10.1092 34.365 10.1092Z" fill="#1C1C1B"/>
<path d="M50.3991 41.2186C49.5216 39.9245 48.6138 38.5859 48.6138 36.0748V35.3649L47.9139 35.2475C47.8234 35.2316 45.6794 34.8946 43.9519 36.3598C43.5722 36.6808 43.2453 37.0596 42.9721 37.4938C42.6343 36.6783 42.1566 36.0094 41.5422 35.4881C40.5213 34.6222 39.3579 34.3876 38.5558 34.3423V18.4397H30.1741V50.2901H24.3069V28.4977H15.9252V50.2901H10.8962V15.087H2.51453V51.9665H41.6897C42.0342 51.9883 42.3862 52 42.7466 52C47.199 52 51.9665 49.3053 51.9665 45.2946C51.9665 43.5303 51.1694 42.3552 50.3991 41.2186ZM9.21988 50.2901H4.19086V16.7634H9.21988V50.2901ZM17.6016 30.1741H22.6306V50.2901H17.6016V30.1741ZM31.8504 50.2901V20.116H36.8795V34.4932V35.2031C36.8795 37.7461 35.9558 39.3395 35.0631 40.8783C34.2727 42.2412 33.5268 43.5295 33.5268 45.2611C33.5268 47.3842 34.5074 49.1133 36.2265 50.2901H31.8504ZM42.7466 50.2901C41.8221 50.2901 41.0703 49.5383 41.0703 48.6138C41.0703 47.3607 42.1197 45.2611 42.7466 45.2611C43.3736 45.2611 44.423 47.3607 44.423 48.6138C44.423 49.5383 43.6711 50.2901 42.7466 50.2901ZM45.8613 49.835C46.0105 49.4553 46.0993 49.0454 46.0993 48.6138C46.0993 46.8863 44.7934 43.5848 42.7466 43.5848C40.6998 43.5848 39.394 46.8863 39.394 48.6138C39.394 49.0999 39.5029 49.5584 39.689 49.9758C37.2105 49.3749 35.2031 47.9382 35.2031 45.2611C35.2031 43.9796 35.8099 42.9327 36.5132 41.7199C37.3807 40.2237 38.3521 38.5474 38.5281 36.0195C39.0637 36.0597 39.8265 36.2248 40.4727 36.7797C41.4257 37.5969 41.9085 39.0411 41.9085 41.0703V41.9084V41.942H43.5848C43.5848 39.9128 44.0676 38.4686 45.0206 37.6522C45.6677 37.0965 46.4321 36.9314 46.9668 36.892C47.1512 39.4166 48.1738 40.9253 49.0119 42.1591C49.7261 43.2135 50.2902 44.0449 50.2902 45.2946C50.2902 47.2425 48.4227 49.0119 45.8613 49.835Z" fill="#1C1C1B"/>
<path d="M46.0993 26.8214C47.4856 26.8214 48.6138 25.6932 48.6138 24.3069C48.6138 22.9205 47.4856 21.7924 46.0993 21.7924C44.713 21.7924 43.5848 22.9205 43.5848 24.3069C43.5848 25.6932 44.713 26.8214 46.0993 26.8214ZM46.0993 23.4687C46.5611 23.4687 46.9375 23.845 46.9375 24.3069C46.9375 24.7687 46.5611 25.145 46.0993 25.145C45.6375 25.145 45.2611 24.7687 45.2611 24.3069C45.2611 23.845 45.6375 23.4687 46.0993 23.4687Z" fill="#1C1C1B"/>
</svg>
