<svg width="52" height="52" viewBox="0 0 52 52" fill="none" xmlns="http://www.w3.org/2000/svg">
<rect width="52" height="52" fill="white"/>
<g clip-path="url(#clip0_2814_612)">
<path d="M34.0974 12.5255C33.8617 10.5081 32.1425 8.9375 30.0625 8.9375C29.5019 8.9375 28.9575 9.05531 28.4375 9.2885C27.9175 9.05531 27.3731 8.9375 26.8125 8.9375C24.7325 8.9375 23.0133 10.5081 22.7776 12.5255C21.2997 13.1552 20.3125 14.6096 20.3125 16.25C20.3125 16.8212 20.4295 17.3737 20.6578 17.8921L20.8723 18.3763H21.1567C21.3111 17.1787 22.3226 16.25 23.5625 16.25H24.375V15.9396C24.375 15.2133 24.9633 14.625 25.6896 14.625C25.8936 14.625 26.0951 14.6721 26.2779 14.7639L26.3437 14.7964C28.2547 15.7528 30.3631 16.25 32.5 16.25H33.3125C34.5524 16.25 35.5639 17.1787 35.7183 18.3763H36.0027L36.2172 17.8921C36.4455 17.3737 36.5625 16.8212 36.5625 16.25C36.5625 14.6096 35.5753 13.1552 34.0974 12.5255Z" fill="#2AB1A3"/>
<path d="M12.1875 16.25H18.6875V22.75H12.1875V16.25Z" fill="#2AB1A3"/>
<path d="M51.1875 7.3125C51.1875 3.72856 48.2714 0.8125 44.6875 0.8125C41.6658 0.8125 39.1259 2.88844 38.4012 5.6875H13C10.7599 5.6875 8.9375 7.50994 8.9375 9.75V30.875C8.9375 33.1151 10.7599 34.9375 13 34.9375H15.3961C15.0646 35.0773 14.7428 35.2365 14.443 35.4356L12.7546 36.5617H0.8125V49.5617H12.8083L14.8574 50.5854C15.6422 50.9787 16.5222 51.1867 17.4005 51.1867H22.7476H22.75H27.625C28.9689 51.1867 30.0625 50.0931 30.0625 48.7492C30.0625 48.1227 29.8179 47.5564 29.4288 47.1242C29.8188 46.6919 30.0625 46.1256 30.0625 45.4992C30.0625 44.8727 29.8179 44.3064 29.4288 43.8742C29.8188 43.4419 30.0625 42.8756 30.0625 42.2492C30.0625 41.6227 29.8179 41.0564 29.4288 40.6242C29.8188 40.1919 30.0625 39.6256 30.0625 38.9992C30.0625 37.6553 28.9689 36.5617 27.625 36.5617H24.6025L25.0088 34.9375H31.6875V37.9413C31.6875 38.9732 32.5268 39.8125 33.5587 39.8125C34.1859 39.8125 34.7677 39.5013 35.1154 38.9797L37.8097 34.9375H38.1875H43.875C46.1151 34.9375 47.9375 33.1151 47.9375 30.875V12.9334C49.8769 11.8073 51.1875 9.71181 51.1875 7.3125ZM12.1875 47.9367H10.5625V41.4375H8.9375V47.9367H2.4375V38.1867H8.9375V39.8125H10.5625V38.1867H12.1875V47.9367ZM28.4375 42.2492C28.4375 42.6969 28.0735 43.0617 27.625 43.0617H22.75C22.3015 43.0617 21.9375 42.6969 21.9375 42.2492C21.9375 41.8015 22.3015 41.4367 22.75 41.4367H27.625C28.0735 41.4367 28.4375 41.8015 28.4375 42.2492ZM28.4375 45.4992C28.4375 45.9469 28.0735 46.3117 27.625 46.3117H22.75C22.3015 46.3117 21.9375 45.9469 21.9375 45.4992C21.9375 45.0515 22.3015 44.6867 22.75 44.6867H27.625C28.0735 44.6867 28.4375 45.0515 28.4375 45.4992ZM27.625 49.5617H22.7492C22.3015 49.5609 21.9375 49.1969 21.9375 48.7492C21.9375 48.3015 22.3015 47.9367 22.75 47.9367H27.625C28.0735 47.9367 28.4375 48.3015 28.4375 48.7492C28.4375 49.1969 28.0735 49.5617 27.625 49.5617ZM28.4375 38.9992C28.4375 39.4469 28.0735 39.8117 27.625 39.8117H22.75C22.3015 39.8117 21.9375 39.4469 21.9375 38.9992C21.9375 38.5515 22.3015 38.1867 22.75 38.1867H27.625C28.0735 38.1867 28.4375 38.5515 28.4375 38.9992ZM22.75 36.5617C21.4061 36.5617 20.3125 37.6553 20.3125 38.9992C20.3125 39.6256 20.5571 40.1919 20.9463 40.6242C20.5562 41.0564 20.3125 41.6227 20.3125 42.2492C20.3125 42.8756 20.5571 43.4419 20.9463 43.8742C20.5562 44.3064 20.3125 44.8727 20.3125 45.4992C20.3125 46.1256 20.5571 46.6919 20.9463 47.1242C20.5562 47.5564 20.3125 48.1227 20.3125 48.7492C20.3125 49.0352 20.371 49.3066 20.462 49.5617H17.4005C16.7733 49.5617 16.1452 49.413 15.5846 49.1327L13.8125 48.2471V37.8097L15.3449 36.7884C15.6455 36.5877 15.9713 36.4284 16.3142 36.3139L17.2364 36.0068C19.5618 35.2308 21.125 33.0631 21.125 30.6109V29.25C21.125 28.8023 21.4898 28.4375 21.9375 28.4375H22.2934C22.8491 28.4375 23.3724 28.6536 23.7656 29.0469C24.1581 29.4401 24.375 29.9626 24.375 30.5183C24.375 30.6873 24.3547 30.8571 24.3132 31.0229L22.9287 36.5617H22.75ZM25.4158 33.3125L25.8903 31.4161C25.9626 31.1212 26 30.8189 26 30.5183C26 29.5287 25.6141 28.5976 24.9145 27.898C24.6805 27.664 24.4132 27.4796 24.1345 27.3187C24.2304 27.2894 24.3238 27.2553 24.4221 27.2309L25.6133 26.9344L28.4375 31.642L31.2618 26.9344L32.4594 27.2342C34.8798 27.8403 36.5666 30.0048 36.5625 32.4992V33.3117H33.3125H31.6875L25.4158 33.3125ZM29.25 23.5625H27.625C26.2811 23.5625 25.1875 22.4689 25.1875 21.125V15.9396C25.1875 15.6626 25.4126 15.4375 25.6896 15.4375C25.7676 15.4375 25.8448 15.4554 25.9789 15.5228C27.7509 16.4084 29.7091 16.9276 31.6867 17.0389V21.125C31.6875 22.4689 30.5939 23.5625 29.25 23.5625ZM27.625 25.1875H29.25C29.445 25.1875 29.6319 25.1566 29.8204 25.1298L30.0056 25.87L28.4375 28.483L26.8694 25.87L27.0546 25.1298C27.2431 25.1566 27.43 25.1875 27.625 25.1875ZM33.7634 38.0786C33.6416 38.259 33.3125 38.1591 33.3125 37.9413V34.9375H35.8573L33.7634 38.0786ZM46.3125 30.875C46.3125 32.2189 45.2189 33.3125 43.875 33.3125H38.1875V32.5008C38.1932 29.2598 36.0003 26.4452 32.8551 25.6579L31.5453 25.3305L31.3576 24.5814C32.3034 24.0021 33.0021 23.0588 33.2304 21.9375H33.3125C35.1049 21.9375 36.5625 20.4799 36.5625 18.6875C36.5625 16.8951 35.1049 15.4375 33.3125 15.4375H32.5C30.4996 15.4375 28.496 14.9646 26.6411 14.0367C26.3478 13.8905 26.0179 13.8125 25.6896 13.8125C24.6911 13.8125 23.8558 14.5072 23.6291 15.4375H23.5625C21.7701 15.4375 20.3125 16.8951 20.3125 18.6875C20.3125 20.4799 21.7701 21.9375 23.5625 21.9375H23.6446C23.8729 23.0588 24.5716 24.0021 25.5174 24.5806L25.3297 25.3289L24.0289 25.6523C23.1083 25.8814 22.2666 26.2901 21.5142 26.8539C20.3726 27.0571 19.5 28.0516 19.5 29.25V30.6109C19.5 31.6363 19.1092 32.5853 18.4592 33.3125H13C11.6561 33.3125 10.5625 32.2189 10.5625 30.875V9.75C10.5625 8.40613 11.6561 7.3125 13 7.3125H38.1875C38.1875 10.8964 41.1036 13.8125 44.6875 13.8125C45.2497 13.8125 45.7917 13.7337 46.3125 13.5988V30.875ZM33.3125 17.0625C34.2087 17.0625 34.9375 17.7913 34.9375 18.6875C34.9375 19.5837 34.2087 20.3125 33.3125 20.3125V17.0625ZM23.5625 20.3125C22.6663 20.3125 21.9375 19.5837 21.9375 18.6875C21.9375 17.7913 22.6663 17.0625 23.5625 17.0625V20.3125ZM44.6875 12.1875C41.9989 12.1875 39.8125 10.0011 39.8125 7.3125C39.8125 4.62394 41.9989 2.4375 44.6875 2.4375C47.3761 2.4375 49.5625 4.62394 49.5625 7.3125C49.5625 10.0011 47.3761 12.1875 44.6875 12.1875Z" fill="#1C1C1B"/>
<path d="M43.0625 8.6011L42.0119 7.55054L40.8631 8.69941L43.0625 10.8988L47.6994 6.26191L46.5506 5.11304L43.0625 8.6011Z" fill="#1C1C1B"/>
<path d="M12.1875 13.8125H18.6875V8.9375H12.1875V13.8125ZM13.8125 10.5625H17.0625V12.1875H13.8125V10.5625Z" fill="#1C1C1B"/>
<path d="M12.1875 15.4375H18.6875V17.0625H12.1875V15.4375Z" fill="#1C1C1B"/>
<path d="M12.1875 21.9375H18.6875V23.5625H12.1875V21.9375Z" fill="#1C1C1B"/>
<path d="M17.0625 18.6875H18.6875V20.3125H17.0625V18.6875Z" fill="#1C1C1B"/>
<path d="M12.1875 18.6875H15.4375V20.3125H12.1875V18.6875Z" fill="#1C1C1B"/>
<path d="M15.4375 25.1875C13.6451 25.1875 12.1875 26.6451 12.1875 28.4375C12.1875 30.2299 13.6451 31.6875 15.4375 31.6875C17.2299 31.6875 18.6875 30.2299 18.6875 28.4375C18.6875 26.6451 17.2299 25.1875 15.4375 25.1875ZM15.4375 30.0625C14.5413 30.0625 13.8125 29.3337 13.8125 28.4375C13.8125 27.5413 14.5413 26.8125 15.4375 26.8125C16.3337 26.8125 17.0625 27.5413 17.0625 28.4375C17.0625 29.3337 16.3337 30.0625 15.4375 30.0625Z" fill="#1C1C1B"/>
</g>
<defs>
<clipPath id="clip0_2814_612">
<rect width="52" height="52" fill="white"/>
</clipPath>
</defs>
</svg>
