<svg width="52" height="52" viewBox="0 0 52 52" fill="none" xmlns="http://www.w3.org/2000/svg">
<rect width="52" height="52" fill="white"/>
<g clip-path="url(#clip0_2814_626)">
<path d="M45.5 12.1875H37.1499C37.2889 12.4272 37.375 12.7026 37.375 13C37.375 13.8978 36.6478 14.625 35.75 14.625C36.6478 14.625 37.375 15.3522 37.375 16.25H44.6875C45.136 16.25 45.5 16.614 45.5 17.0625V39.8125C45.5 40.261 45.136 40.625 44.6875 40.625H7.3125C6.864 40.625 6.5 40.261 6.5 39.8125V17.0625C6.5 16.614 6.864 16.25 7.3125 16.25H13V12.1875H6.5C4.25994 12.1875 2.4375 14.0099 2.4375 16.25V43.875H49.5625V16.25C49.5625 14.0099 47.7401 12.1875 45.5 12.1875Z" fill="#2AB1A3"/>
<path d="M44.6875 15.4375H38.038C37.9299 15.1336 37.7658 14.8598 37.5538 14.625C37.9438 14.1927 38.1875 13.6264 38.1875 13C38.1875 12.3736 37.9429 11.8073 37.5538 11.375C37.9438 10.9427 38.1875 10.3764 38.1875 9.75C38.1875 8.40613 37.0939 7.3125 35.75 7.3125H31.1033L31.577 5.41775C31.6501 5.12525 31.6875 4.82219 31.6875 4.51912C31.6875 2.47487 30.0251 0.8125 27.9809 0.8125H27.0392L25.5328 5.33244C25.3841 5.77931 25.1111 6.17013 24.7431 6.46506L22.3202 8.40369C21.8896 8.74819 21.3484 8.9375 20.7976 8.9375H20.3125V7.3125H12.1875V15.4375H7.3125C6.41631 15.4375 5.6875 16.1663 5.6875 17.0625V39.8125C5.6875 40.7087 6.41631 41.4375 7.3125 41.4375H44.6875C45.5837 41.4375 46.3125 40.7087 46.3125 39.8125V17.0625C46.3125 16.1663 45.5837 15.4375 44.6875 15.4375ZM20.7976 10.5625C21.7165 10.5625 22.6176 10.2464 23.3358 9.672L25.7587 7.73337C26.3713 7.24344 26.8271 6.59019 27.0749 5.84594L28.2076 2.44887C29.2484 2.56262 30.0625 3.44744 30.0625 4.51912C30.0625 4.68894 30.0414 4.85875 29.9999 5.02369L29.0217 8.9375H35.75C36.1977 8.9375 36.5625 9.30231 36.5625 9.75C36.5625 10.1977 36.1977 10.5625 35.75 10.5625H31.6875V12.1875H35.75C36.1977 12.1875 36.5625 12.5523 36.5625 13C36.5625 13.4477 36.1977 13.8125 35.75 13.8125H31.6875V15.4375H35.75C36.1977 15.4375 36.5625 15.8023 36.5625 16.25C36.5625 16.6977 36.1977 17.0625 35.75 17.0625H34.125H31.6875V18.6875H34.125C34.5727 18.6875 34.9375 19.0523 34.9375 19.5C34.9375 19.9477 34.5727 20.3125 34.125 20.3125H25.5263C24.8991 20.3125 24.271 20.1638 23.7096 19.8835L21.3167 18.6875H20.3125V10.5625H20.7976ZM13.8125 8.9375H18.6875V20.3125H13.8125V8.9375ZM44.6875 39.8125H7.3125V17.0625H12.1875V21.9375H20.3125V20.3125H20.9333L22.9824 21.3371C23.7681 21.7303 24.6472 21.9375 25.5263 21.9375H34.125C35.4689 21.9375 36.5625 20.8439 36.5625 19.5C36.5625 19.1791 36.4967 18.8744 36.3837 18.5933C37.1556 18.3836 37.7715 17.8092 38.038 17.0625H44.6875V39.8125Z" fill="#1C1C1B"/>
<path d="M47.125 51.1875H4.875C2.63494 51.1875 0.8125 49.3651 0.8125 47.125V43.0625H51.1875V47.125C51.1875 49.3651 49.3651 51.1875 47.125 51.1875ZM2.4375 44.6875V47.125C2.4375 48.4689 3.53113 49.5625 4.875 49.5625H47.125C48.4689 49.5625 49.5625 48.4689 49.5625 47.125V44.6875H2.4375Z" fill="#1C1C1B"/>
<path d="M21.9375 46.3125H30.0625V47.9375H21.9375V46.3125Z" fill="#1C1C1B"/>
<path d="M31.6875 46.3125H33.3125V47.9375H31.6875V46.3125Z" fill="#1C1C1B"/>
<path d="M18.6875 46.3125H20.3125V47.9375H18.6875V46.3125Z" fill="#1C1C1B"/>
<path d="M36.5625 26.8125L38.1875 30.875H41.4375L38.8107 33.0298L40.1993 37.375L36.5625 34.6897L32.9257 37.375L34.3143 33.0298L30.875 30.875H34.9375L36.5625 26.8125Z" fill="#2AB1A3"/>
<path d="M26 24.375L27.625 28.4375H31.6875L28.2482 30.5923L29.6368 34.9375L26 32.2522L22.3633 34.9375L23.7518 30.5923L20.3125 28.4375H24.375L26 24.375Z" fill="#2AB1A3"/>
<path d="M15.4375 26.8125L17.0625 30.875H21.125L17.6857 33.0298L19.0743 37.375L15.4375 34.6897L11.8008 37.375L13.1893 33.0298L10.5625 30.875H13.8125L15.4375 26.8125Z" fill="#2AB1A3"/>
<path d="M43.0625 25.1875H41.4375V20.3125H39.8125V18.6875H43.0625V25.1875Z" fill="#1C1C1B"/>
<path d="M41.4375 26.8125H43.0625V28.4375H41.4375V26.8125Z" fill="#1C1C1B"/>
</g>
<defs>
<clipPath id="clip0_2814_626">
<rect width="52" height="52" fill="white"/>
</clipPath>
</defs>
</svg>
