<svg width="52" height="52" viewBox="0 0 52 52" fill="none" xmlns="http://www.w3.org/2000/svg">
<rect width="52" height="52" fill="white"/>
<g clip-path="url(#clip0_2814_631)">
<path d="M34.6529 13.4898C35.2553 11.7034 36.8311 10.3708 38.751 10.1157L40.0418 7.09381L35.6005 2.65373L32.9824 4.35777C31.9877 3.79754 30.9356 3.36139 29.843 3.05548L29.1963 0H22.8044L22.1578 3.05548C21.0652 3.36139 20.0123 3.79754 19.0184 4.35777L16.4003 2.65373L11.9626 7.09136L13.2289 10.1079C15.1537 10.3647 16.6996 11.7636 17.3184 13.5688L17.6129 12.9246C19.115 9.65868 22.4068 7.54839 26 7.54839C29.5612 7.54839 32.8415 9.63165 34.3559 12.8575L34.6529 13.4898Z" fill="#2AB1A3"/>
<path d="M32.8874 22.8732L29.354 21.989V21.5873C30.9171 20.4963 31.8709 18.694 31.8709 16.7741V15.308C31.8709 12.0498 29.3179 9.32318 26.1801 9.22817C24.5723 9.17698 23.0612 9.76751 21.9121 10.8831C20.7621 11.9986 20.129 13.4946 20.129 15.0967V16.7741C20.129 18.694 21.0819 20.4955 22.6451 21.5864V21.989L19.1125 22.8732C17.2422 23.3404 15.9354 25.0138 15.9354 26.9418V28.4231L18.2755 27.903C18.9499 27.7527 19.6392 27.6773 20.3292 27.6773C21.308 27.6773 22.281 27.8293 23.2127 28.127L27.0524 29.3547C27.4669 29.3547 27.8797 29.4125 28.2777 29.5267L33.5483 31.0322H34.387L36.0645 30.1488V26.9418C36.0645 25.0138 34.7577 23.3404 32.8874 22.8732Z" fill="#2AB1A3"/>
<path d="M52 21.8064H50.1154L47.3064 23.2844C46.9903 23.1099 46.6614 22.9621 46.3068 22.8732L42.7734 21.9891V21.5873C44.3365 20.4963 45.2903 18.694 45.2903 16.7741V15.308C45.2903 12.0499 42.7373 9.32323 39.5995 9.22822C37.9942 9.18112 36.4806 9.76756 35.3315 10.8831C34.1815 11.9987 33.5484 13.4947 33.5484 15.0967V16.7741C33.5484 18.694 34.5014 20.4955 36.0645 21.5865V21.9891L32.7097 22.829L32.8874 22.8732C33.6643 23.0669 34.3351 23.4773 34.8634 24.0191L37.7419 23.2999V20.6438L37.3234 20.4017C36.0293 19.6535 35.2258 18.2628 35.2258 16.7741V15.0967C35.2258 13.9529 35.6779 12.8832 36.4998 12.0867C37.3209 11.2906 38.4103 10.8614 39.5492 10.9056C41.7897 10.9728 43.6129 12.9479 43.6129 15.308V16.7741C43.6129 18.2628 42.8086 19.6535 41.5137 20.4034L41.0943 20.6458L41.0976 23.2999L45.2879 24.3467L34.1799 30.1935H33.6659L28.5096 28.72C28.1041 28.6049 27.6856 28.5579 27.2654 28.5419L23.4687 27.3285C21.7385 26.774 19.8657 26.6912 18.0945 27.0836L13.3203 28.1446L13.3882 27.9071L13.4194 26.3571L8.99606 23.7766L10.9032 23.2999V20.6438L10.4847 20.4017C9.19059 19.6535 8.3871 18.2628 8.3871 16.7741V15.0967C8.3871 13.9529 8.83921 12.8832 9.66113 12.0867C10.4822 11.2906 11.574 10.8614 12.7105 10.9056C14.951 10.9728 16.7742 12.9479 16.7742 15.308V16.7741C16.7742 18.2628 15.9699 19.6535 14.675 20.4034L14.2556 20.6458L14.2589 23.2999L17.1366 24.0191C17.6657 23.4773 18.3357 23.0669 19.1126 22.8732L19.2903 22.829L15.9347 21.9891V21.5873C17.4978 20.4963 18.4516 18.694 18.4516 16.7741V15.308C18.4516 12.0499 15.8986 9.32323 12.7608 9.22822C11.1547 9.18112 9.64189 9.76756 8.49275 10.8831C7.34281 11.9987 6.70968 13.4947 6.70968 15.0967V16.7741C6.70968 18.694 7.66265 20.4955 9.22581 21.5865V21.9891L6.92099 22.5653L2.74342 20.129H0V37.508L8.25113 40.258H9.85812L10.0588 39.5553L12.588 41.0734C12.6294 42.4486 13.7322 43.5551 15.1062 43.6034C15.1545 44.9717 16.2541 46.0712 17.6223 46.1196C17.6706 47.4878 18.7702 48.5874 20.1385 48.6357C20.1884 50.0359 21.3351 51.1612 22.7467 51.1612C23.2709 51.1612 23.7849 50.9978 24.2169 50.7067L24.9598 51.3627C25.4254 51.7727 26.025 52 26.6475 52H26.8027C28.1983 52 29.334 50.8717 29.3516 49.4805C30.7321 49.4629 31.8501 48.3449 31.8677 46.9644C33.249 46.9468 34.3679 45.8272 34.3838 44.4458C35.7779 44.4131 36.9032 43.2742 36.9032 41.8724C36.9032 41.788 36.8991 41.7049 36.8905 41.6209L52 34.0668V21.8064ZM1.67742 21.8064H2.28884L8.32075 25.3246L5.27715 37.4986L1.67742 36.2983V21.8064ZM8.52306 38.5806L6.87226 38.0306L9.82904 26.2047L11.7419 27.3203V27.5598L8.5935 38.5806H8.52306ZM14.2581 40.9952C14.2581 40.7478 14.358 40.5054 14.5333 40.3301L16.0076 38.8558C16.1828 38.6805 16.4253 38.5806 16.6726 38.5806C17.1911 38.5806 17.6129 39.0024 17.6129 39.5209C17.6129 39.7682 17.513 40.0107 17.3377 40.1859L15.8634 41.6602C15.6881 41.8355 15.4457 41.9354 15.1983 41.9354C14.6799 41.9354 14.2581 41.5136 14.2581 40.9952ZM16.7742 43.5113C16.7742 43.2639 16.8741 43.0215 17.0494 42.8462L18.5237 41.3719C18.699 41.1967 18.9414 41.0967 19.1888 41.0967C19.7072 41.0967 20.129 41.5185 20.129 42.037C20.129 42.2844 20.0291 42.5268 19.8538 42.7021L18.3795 44.1764C18.2043 44.3516 17.9618 44.4516 17.7145 44.4516C17.196 44.4516 16.7742 44.0298 16.7742 43.5113ZM19.2903 46.0274C19.2903 45.7801 19.3902 45.5376 19.5655 45.3624L21.0398 43.8881C21.2151 43.7128 21.4575 43.6129 21.7049 43.6129C22.2234 43.6129 22.6452 44.0347 22.6452 44.5531C22.6452 44.8005 22.5452 45.0429 22.37 45.2182L20.8957 46.6925C20.7204 46.8678 20.4779 46.9677 20.2306 46.9677C19.7121 46.9677 19.2903 46.5459 19.2903 46.0274ZM22.7467 49.4838C22.2283 49.4838 21.8065 49.062 21.8065 48.5436C21.8065 48.2962 21.9064 48.0538 22.0817 47.8785L23.5559 46.4042C23.7312 46.2289 23.9737 46.129 24.221 46.129C24.7395 46.129 25.1613 46.5508 25.1613 47.0693C25.1613 47.3166 25.0614 47.5591 24.8861 47.7343L23.4118 49.2086C23.2365 49.3839 22.9941 49.4838 22.7467 49.4838ZM26.8027 50.3225H26.6475C26.4337 50.3225 26.2289 50.2447 26.0696 50.1034L25.4422 49.5502L26.0721 48.9203C26.2969 48.6955 26.4714 48.4281 26.6004 48.141L27.3629 48.7758C27.5623 48.942 27.6774 49.1869 27.6774 49.4478C27.6774 49.9302 27.2851 50.3225 26.8027 50.3225ZM34.324 42.7741H34.1791C33.9686 42.7741 33.763 42.6996 33.602 42.5645L29.0538 38.7743L27.9792 40.0635L32.396 43.7435C32.5946 43.9098 32.7097 44.1547 32.7097 44.4155C32.7097 44.8979 32.3174 45.2903 31.8349 45.2903H31.6519C31.4483 45.2903 31.2493 45.2182 31.0925 45.0872L26.5369 41.2913L25.4623 42.5804L29.879 46.2609C30.0785 46.4259 30.1936 46.6708 30.1936 46.9317C30.1936 47.4141 29.8012 47.8064 29.3188 47.8064C28.9969 47.8064 28.6832 47.6921 28.4363 47.487L26.5643 45.9267C26.1519 45.0839 25.3046 44.4962 24.3123 44.461C24.264 43.0928 23.1644 41.9932 21.7962 41.9449C21.7479 40.5766 20.6483 39.4771 19.2801 39.4287C19.2309 38.0286 18.0843 36.9032 16.6726 36.9032C15.9834 36.9032 15.3089 37.1825 14.8216 37.6698L13.3473 39.1441C13.2592 39.2322 13.1863 39.3321 13.1122 39.4312L10.5359 37.8852L12.7944 29.9805L18.4565 28.7217C19.9419 28.3895 21.5079 28.4616 22.9564 28.9252L24.1919 29.3204L20.0033 31.4147C19.0462 31.8943 18.4516 32.8571 18.4516 33.9276V34.0934C18.4516 35.6427 19.7121 36.9032 21.2614 36.9032C21.7704 36.9032 22.2713 36.7648 22.7066 36.5023L25.8296 34.6295C26.457 34.2535 27.299 34.3359 27.8408 34.8232L34.9273 41.2007C35.1169 41.3727 35.2258 41.6168 35.2258 41.8724C35.2258 42.3699 34.8216 42.7741 34.324 42.7741ZM50.3226 33.0299L36.1927 40.0954C36.1468 40.0467 36.0989 40.0004 36.0485 39.9554L28.9633 33.5778C28.3425 33.0176 27.5398 32.7096 26.7036 32.7096C26.0921 32.7096 25.4918 32.8759 24.9659 33.1912L21.8417 35.0648C21.6664 35.1705 21.4661 35.2258 21.2614 35.2258C20.6364 35.2258 20.129 34.7184 20.129 34.0934V33.9276C20.129 33.4955 20.369 33.1081 20.7548 32.9152L25.4332 30.576C26.2338 30.1751 27.1844 30.0854 28.0472 30.3336L33.3178 31.839L34.5943 31.8709L50.3226 23.5928V33.0299Z" fill="#1C1C1B"/>
</g>
<defs>
<clipPath id="clip0_2814_631">
<rect width="52" height="52" fill="white"/>
</clipPath>
</defs>
</svg>
